<mxfile host="app.diagrams.net" modified="2022-10-29T02:09:26.859Z" agent="5.0 (Macintosh; Intel Mac OS X 10_15_7) AppleWebKit/537.36 (KHTML, like Gecko) Chrome/107.0.0.0 Safari/537.36" etag="I-18ghVARsDKwzqXPtGG" version="20.5.1" type="github">
  <diagram id="vUVdV6a0ZZg6K1GFUMTs" name="第 1 页">
    <mxGraphModel dx="1049" dy="690" grid="1" gridSize="10" guides="1" tooltips="1" connect="1" arrows="1" fold="1" page="1" pageScale="1" pageWidth="827" pageHeight="1169" math="0" shadow="0">
      <root>
        <mxCell id="0" />
        <mxCell id="1" parent="0" />
        <mxCell id="cGDT0KRbJWTony019X_f-1" value="Component" style="swimlane;fontStyle=1;align=center;verticalAlign=top;childLayout=stackLayout;horizontal=1;startSize=26;horizontalStack=0;resizeParent=1;resizeParentMax=0;resizeLast=0;collapsible=1;marginBottom=0;" vertex="1" parent="1">
          <mxGeometry x="220" y="290" width="160" height="60" as="geometry" />
        </mxCell>
        <mxCell id="cGDT0KRbJWTony019X_f-3" value="" style="line;strokeWidth=1;fillColor=none;align=left;verticalAlign=middle;spacingTop=-1;spacingLeft=3;spacingRight=3;rotatable=0;labelPosition=right;points=[];portConstraint=eastwest;strokeColor=inherit;" vertex="1" parent="cGDT0KRbJWTony019X_f-1">
          <mxGeometry y="26" width="160" height="8" as="geometry" />
        </mxCell>
        <mxCell id="cGDT0KRbJWTony019X_f-4" value="+ doOperation()" style="text;strokeColor=none;fillColor=none;align=left;verticalAlign=top;spacingLeft=4;spacingRight=4;overflow=hidden;rotatable=0;points=[[0,0.5],[1,0.5]];portConstraint=eastwest;" vertex="1" parent="cGDT0KRbJWTony019X_f-1">
          <mxGeometry y="34" width="160" height="26" as="geometry" />
        </mxCell>
        <mxCell id="cGDT0KRbJWTony019X_f-5" value="Component" style="swimlane;fontStyle=1;align=center;verticalAlign=top;childLayout=stackLayout;horizontal=1;startSize=26;horizontalStack=0;resizeParent=1;resizeParentMax=0;resizeLast=0;collapsible=1;marginBottom=0;" vertex="1" parent="1">
          <mxGeometry x="50" y="480" width="160" height="60" as="geometry" />
        </mxCell>
        <mxCell id="cGDT0KRbJWTony019X_f-7" value="" style="line;strokeWidth=1;fillColor=none;align=left;verticalAlign=middle;spacingTop=-1;spacingLeft=3;spacingRight=3;rotatable=0;labelPosition=right;points=[];portConstraint=eastwest;strokeColor=inherit;" vertex="1" parent="cGDT0KRbJWTony019X_f-5">
          <mxGeometry y="26" width="160" height="8" as="geometry" />
        </mxCell>
        <mxCell id="cGDT0KRbJWTony019X_f-8" value="+ doOperation()" style="text;strokeColor=none;fillColor=none;align=left;verticalAlign=top;spacingLeft=4;spacingRight=4;overflow=hidden;rotatable=0;points=[[0,0.5],[1,0.5]];portConstraint=eastwest;" vertex="1" parent="cGDT0KRbJWTony019X_f-5">
          <mxGeometry y="34" width="160" height="26" as="geometry" />
        </mxCell>
        <mxCell id="cGDT0KRbJWTony019X_f-9" value="Decorator" style="swimlane;fontStyle=1;align=center;verticalAlign=top;childLayout=stackLayout;horizontal=1;startSize=26;horizontalStack=0;resizeParent=1;resizeParentMax=0;resizeLast=0;collapsible=1;marginBottom=0;" vertex="1" parent="1">
          <mxGeometry x="334" y="480" width="160" height="60" as="geometry" />
        </mxCell>
        <mxCell id="cGDT0KRbJWTony019X_f-11" value="" style="line;strokeWidth=1;fillColor=none;align=left;verticalAlign=middle;spacingTop=-1;spacingLeft=3;spacingRight=3;rotatable=0;labelPosition=right;points=[];portConstraint=eastwest;strokeColor=inherit;" vertex="1" parent="cGDT0KRbJWTony019X_f-9">
          <mxGeometry y="26" width="160" height="8" as="geometry" />
        </mxCell>
        <mxCell id="cGDT0KRbJWTony019X_f-12" value="+ doOperation()" style="text;strokeColor=none;fillColor=none;align=left;verticalAlign=top;spacingLeft=4;spacingRight=4;overflow=hidden;rotatable=0;points=[[0,0.5],[1,0.5]];portConstraint=eastwest;" vertex="1" parent="cGDT0KRbJWTony019X_f-9">
          <mxGeometry y="34" width="160" height="26" as="geometry" />
        </mxCell>
        <mxCell id="cGDT0KRbJWTony019X_f-36" value="" style="endArrow=block;html=1;rounded=0;align=center;verticalAlign=bottom;endFill=0;labelBackgroundColor=none;endSize=8;entryX=0.4;entryY=0.962;entryDx=0;entryDy=0;entryPerimeter=0;exitX=0.5;exitY=0;exitDx=0;exitDy=0;edgeStyle=orthogonalEdgeStyle;" edge="1" parent="1" source="cGDT0KRbJWTony019X_f-5" target="cGDT0KRbJWTony019X_f-4">
          <mxGeometry relative="1" as="geometry">
            <mxPoint x="240" y="570" as="sourcePoint" />
            <mxPoint x="270" y="380" as="targetPoint" />
          </mxGeometry>
        </mxCell>
        <mxCell id="cGDT0KRbJWTony019X_f-37" value="" style="resizable=0;html=1;align=center;verticalAlign=top;labelBackgroundColor=none;" connectable="0" vertex="1" parent="cGDT0KRbJWTony019X_f-36">
          <mxGeometry relative="1" as="geometry" />
        </mxCell>
        <mxCell id="cGDT0KRbJWTony019X_f-38" value="" style="endArrow=block;html=1;rounded=0;align=center;verticalAlign=bottom;endFill=0;labelBackgroundColor=none;endSize=8;exitX=0.5;exitY=0;exitDx=0;exitDy=0;entryX=0.481;entryY=1.038;entryDx=0;entryDy=0;entryPerimeter=0;edgeStyle=orthogonalEdgeStyle;" edge="1" parent="1" source="cGDT0KRbJWTony019X_f-9" target="cGDT0KRbJWTony019X_f-4">
          <mxGeometry relative="1" as="geometry">
            <mxPoint x="150" y="490" as="sourcePoint" />
            <mxPoint x="280" y="380" as="targetPoint" />
          </mxGeometry>
        </mxCell>
        <mxCell id="cGDT0KRbJWTony019X_f-39" value="" style="resizable=0;html=1;align=center;verticalAlign=top;labelBackgroundColor=none;" connectable="0" vertex="1" parent="cGDT0KRbJWTony019X_f-38">
          <mxGeometry relative="1" as="geometry" />
        </mxCell>
        <mxCell id="cGDT0KRbJWTony019X_f-44" value="ConcreteDecoratorA" style="swimlane;fontStyle=1;align=center;verticalAlign=top;childLayout=stackLayout;horizontal=1;startSize=26;horizontalStack=0;resizeParent=1;resizeParentMax=0;resizeLast=0;collapsible=1;marginBottom=0;" vertex="1" parent="1">
          <mxGeometry x="250" y="650" width="160" height="80" as="geometry" />
        </mxCell>
        <mxCell id="cGDT0KRbJWTony019X_f-46" value="" style="line;strokeWidth=1;fillColor=none;align=left;verticalAlign=middle;spacingTop=-1;spacingLeft=3;spacingRight=3;rotatable=0;labelPosition=right;points=[];portConstraint=eastwest;strokeColor=inherit;" vertex="1" parent="cGDT0KRbJWTony019X_f-44">
          <mxGeometry y="26" width="160" height="8" as="geometry" />
        </mxCell>
        <mxCell id="cGDT0KRbJWTony019X_f-47" value="+ doOperation()&#xa;+ otherOperation" style="text;strokeColor=none;fillColor=none;align=left;verticalAlign=top;spacingLeft=4;spacingRight=4;overflow=hidden;rotatable=0;points=[[0,0.5],[1,0.5]];portConstraint=eastwest;" vertex="1" parent="cGDT0KRbJWTony019X_f-44">
          <mxGeometry y="34" width="160" height="46" as="geometry" />
        </mxCell>
        <mxCell id="cGDT0KRbJWTony019X_f-48" value="ConcreteDecoratorB" style="swimlane;fontStyle=1;align=center;verticalAlign=top;childLayout=stackLayout;horizontal=1;startSize=26;horizontalStack=0;resizeParent=1;resizeParentMax=0;resizeLast=0;collapsible=1;marginBottom=0;" vertex="1" parent="1">
          <mxGeometry x="440" y="650" width="160" height="74" as="geometry" />
        </mxCell>
        <mxCell id="cGDT0KRbJWTony019X_f-50" value="" style="line;strokeWidth=1;fillColor=none;align=left;verticalAlign=middle;spacingTop=-1;spacingLeft=3;spacingRight=3;rotatable=0;labelPosition=right;points=[];portConstraint=eastwest;strokeColor=inherit;" vertex="1" parent="cGDT0KRbJWTony019X_f-48">
          <mxGeometry y="26" width="160" height="8" as="geometry" />
        </mxCell>
        <mxCell id="cGDT0KRbJWTony019X_f-51" value="+ doOperation()&#xa;+ otherOperation" style="text;strokeColor=none;fillColor=none;align=left;verticalAlign=top;spacingLeft=4;spacingRight=4;overflow=hidden;rotatable=0;points=[[0,0.5],[1,0.5]];portConstraint=eastwest;" vertex="1" parent="cGDT0KRbJWTony019X_f-48">
          <mxGeometry y="34" width="160" height="40" as="geometry" />
        </mxCell>
        <mxCell id="cGDT0KRbJWTony019X_f-54" value="" style="endArrow=block;html=1;rounded=0;align=center;verticalAlign=bottom;endFill=0;labelBackgroundColor=none;endSize=8;edgeStyle=orthogonalEdgeStyle;" edge="1" parent="1" source="cGDT0KRbJWTony019X_f-44" target="cGDT0KRbJWTony019X_f-9">
          <mxGeometry relative="1" as="geometry">
            <mxPoint x="114.07999999999993" y="661.0319999999999" as="sourcePoint" />
            <mxPoint x="145.23665741798595" y="576" as="targetPoint" />
          </mxGeometry>
        </mxCell>
        <mxCell id="cGDT0KRbJWTony019X_f-55" value="" style="resizable=0;html=1;align=center;verticalAlign=top;labelBackgroundColor=none;" connectable="0" vertex="1" parent="cGDT0KRbJWTony019X_f-54">
          <mxGeometry relative="1" as="geometry" />
        </mxCell>
        <mxCell id="cGDT0KRbJWTony019X_f-56" value="" style="endArrow=block;html=1;rounded=0;align=center;verticalAlign=bottom;endFill=0;labelBackgroundColor=none;endSize=8;edgeStyle=orthogonalEdgeStyle;" edge="1" parent="1" source="cGDT0KRbJWTony019X_f-48" target="cGDT0KRbJWTony019X_f-9">
          <mxGeometry relative="1" as="geometry">
            <mxPoint x="124.07999999999993" y="671.0319999999999" as="sourcePoint" />
            <mxPoint x="155.23665741798595" y="586" as="targetPoint" />
          </mxGeometry>
        </mxCell>
        <mxCell id="cGDT0KRbJWTony019X_f-57" value="" style="resizable=0;html=1;align=center;verticalAlign=top;labelBackgroundColor=none;" connectable="0" vertex="1" parent="cGDT0KRbJWTony019X_f-56">
          <mxGeometry relative="1" as="geometry" />
        </mxCell>
        <mxCell id="cGDT0KRbJWTony019X_f-70" value="" style="endArrow=open;html=1;endSize=12;startArrow=diamondThin;startSize=14;startFill=0;edgeStyle=orthogonalEdgeStyle;rounded=0;exitX=1;exitY=0.5;exitDx=0;exitDy=0;" edge="1" parent="1">
          <mxGeometry relative="1" as="geometry">
            <mxPoint x="494" y="519" as="sourcePoint" />
            <mxPoint x="380" y="329.04347826086973" as="targetPoint" />
            <Array as="points">
              <mxPoint x="530" y="519" />
              <mxPoint x="530" y="329" />
            </Array>
          </mxGeometry>
        </mxCell>
        <mxCell id="cGDT0KRbJWTony019X_f-75" value="聚合" style="edgeLabel;html=1;align=center;verticalAlign=middle;resizable=0;points=[];" vertex="1" connectable="0" parent="cGDT0KRbJWTony019X_f-70">
          <mxGeometry x="-0.1632" y="1" relative="1" as="geometry">
            <mxPoint as="offset" />
          </mxGeometry>
        </mxCell>
        <mxCell id="cGDT0KRbJWTony019X_f-76" value="Source" style="swimlane;fontStyle=1;align=center;verticalAlign=top;childLayout=stackLayout;horizontal=1;startSize=26;horizontalStack=0;resizeParent=1;resizeParentMax=0;resizeLast=0;collapsible=1;marginBottom=0;" vertex="1" parent="1">
          <mxGeometry x="280" y="830" width="160" height="60" as="geometry" />
        </mxCell>
        <mxCell id="cGDT0KRbJWTony019X_f-77" value="" style="line;strokeWidth=1;fillColor=none;align=left;verticalAlign=middle;spacingTop=-1;spacingLeft=3;spacingRight=3;rotatable=0;labelPosition=right;points=[];portConstraint=eastwest;strokeColor=inherit;" vertex="1" parent="cGDT0KRbJWTony019X_f-76">
          <mxGeometry y="26" width="160" height="8" as="geometry" />
        </mxCell>
        <mxCell id="cGDT0KRbJWTony019X_f-78" value="+ source()" style="text;strokeColor=none;fillColor=none;align=left;verticalAlign=top;spacingLeft=4;spacingRight=4;overflow=hidden;rotatable=0;points=[[0,0.5],[1,0.5]];portConstraint=eastwest;" vertex="1" parent="cGDT0KRbJWTony019X_f-76">
          <mxGeometry y="34" width="160" height="26" as="geometry" />
        </mxCell>
        <mxCell id="cGDT0KRbJWTony019X_f-79" value="OriginalSource" style="swimlane;fontStyle=1;align=center;verticalAlign=top;childLayout=stackLayout;horizontal=1;startSize=26;horizontalStack=0;resizeParent=1;resizeParentMax=0;resizeLast=0;collapsible=1;marginBottom=0;" vertex="1" parent="1">
          <mxGeometry x="110" y="1020" width="160" height="60" as="geometry" />
        </mxCell>
        <mxCell id="cGDT0KRbJWTony019X_f-80" value="" style="line;strokeWidth=1;fillColor=none;align=left;verticalAlign=middle;spacingTop=-1;spacingLeft=3;spacingRight=3;rotatable=0;labelPosition=right;points=[];portConstraint=eastwest;strokeColor=inherit;" vertex="1" parent="cGDT0KRbJWTony019X_f-79">
          <mxGeometry y="26" width="160" height="8" as="geometry" />
        </mxCell>
        <mxCell id="cGDT0KRbJWTony019X_f-81" value="+ source()" style="text;strokeColor=none;fillColor=none;align=left;verticalAlign=top;spacingLeft=4;spacingRight=4;overflow=hidden;rotatable=0;points=[[0,0.5],[1,0.5]];portConstraint=eastwest;" vertex="1" parent="cGDT0KRbJWTony019X_f-79">
          <mxGeometry y="34" width="160" height="26" as="geometry" />
        </mxCell>
        <mxCell id="cGDT0KRbJWTony019X_f-82" value="ReplaceSource" style="swimlane;fontStyle=1;align=center;verticalAlign=top;childLayout=stackLayout;horizontal=1;startSize=26;horizontalStack=0;resizeParent=1;resizeParentMax=0;resizeLast=0;collapsible=1;marginBottom=0;" vertex="1" parent="1">
          <mxGeometry x="394" y="1020" width="160" height="60" as="geometry" />
        </mxCell>
        <mxCell id="cGDT0KRbJWTony019X_f-83" value="" style="line;strokeWidth=1;fillColor=none;align=left;verticalAlign=middle;spacingTop=-1;spacingLeft=3;spacingRight=3;rotatable=0;labelPosition=right;points=[];portConstraint=eastwest;strokeColor=inherit;" vertex="1" parent="cGDT0KRbJWTony019X_f-82">
          <mxGeometry y="26" width="160" height="8" as="geometry" />
        </mxCell>
        <mxCell id="cGDT0KRbJWTony019X_f-84" value="+ source()" style="text;strokeColor=none;fillColor=none;align=left;verticalAlign=top;spacingLeft=4;spacingRight=4;overflow=hidden;rotatable=0;points=[[0,0.5],[1,0.5]];portConstraint=eastwest;" vertex="1" parent="cGDT0KRbJWTony019X_f-82">
          <mxGeometry y="34" width="160" height="26" as="geometry" />
        </mxCell>
        <mxCell id="cGDT0KRbJWTony019X_f-85" value="" style="endArrow=block;html=1;rounded=0;align=center;verticalAlign=bottom;endFill=0;labelBackgroundColor=none;endSize=8;entryX=0.4;entryY=0.962;entryDx=0;entryDy=0;entryPerimeter=0;exitX=0.5;exitY=0;exitDx=0;exitDy=0;edgeStyle=orthogonalEdgeStyle;" edge="1" parent="1" source="cGDT0KRbJWTony019X_f-79" target="cGDT0KRbJWTony019X_f-78">
          <mxGeometry relative="1" as="geometry">
            <mxPoint x="300" y="1110" as="sourcePoint" />
            <mxPoint x="330" y="920" as="targetPoint" />
          </mxGeometry>
        </mxCell>
        <mxCell id="cGDT0KRbJWTony019X_f-86" value="" style="resizable=0;html=1;align=center;verticalAlign=top;labelBackgroundColor=none;" connectable="0" vertex="1" parent="cGDT0KRbJWTony019X_f-85">
          <mxGeometry relative="1" as="geometry" />
        </mxCell>
        <mxCell id="cGDT0KRbJWTony019X_f-87" value="" style="endArrow=block;html=1;rounded=0;align=center;verticalAlign=bottom;endFill=0;labelBackgroundColor=none;endSize=8;exitX=0.5;exitY=0;exitDx=0;exitDy=0;entryX=0.481;entryY=1.038;entryDx=0;entryDy=0;entryPerimeter=0;edgeStyle=orthogonalEdgeStyle;" edge="1" parent="1" source="cGDT0KRbJWTony019X_f-82" target="cGDT0KRbJWTony019X_f-78">
          <mxGeometry relative="1" as="geometry">
            <mxPoint x="210" y="1030" as="sourcePoint" />
            <mxPoint x="340" y="920" as="targetPoint" />
          </mxGeometry>
        </mxCell>
        <mxCell id="cGDT0KRbJWTony019X_f-88" value="" style="resizable=0;html=1;align=center;verticalAlign=top;labelBackgroundColor=none;" connectable="0" vertex="1" parent="cGDT0KRbJWTony019X_f-87">
          <mxGeometry relative="1" as="geometry" />
        </mxCell>
        <mxCell id="cGDT0KRbJWTony019X_f-89" value="" style="endArrow=open;html=1;endSize=12;startArrow=diamondThin;startSize=14;startFill=0;edgeStyle=orthogonalEdgeStyle;rounded=0;exitX=1;exitY=0.5;exitDx=0;exitDy=0;" edge="1" parent="1">
          <mxGeometry relative="1" as="geometry">
            <mxPoint x="554" y="1059" as="sourcePoint" />
            <mxPoint x="440" y="869.0434782608698" as="targetPoint" />
            <Array as="points">
              <mxPoint x="590" y="1059" />
              <mxPoint x="590" y="869" />
            </Array>
          </mxGeometry>
        </mxCell>
      </root>
    </mxGraphModel>
  </diagram>
</mxfile>
